<svg height="512pt" viewBox="-20 0 512 512.00136" width="512pt" xmlns="http://www.w3.org/2000/svg"><path d="m249.535156 387.1875c-11.3125 11.3125-11.3125 29.652344 0 40.964844s29.652344 11.3125 40.960938 0l17.792968-17.792969c1.773438-1.769531 4.648438-1.769531 6.417969 0l20.484375 20.484375c1.769532 1.769531 1.769532 4.644531 0 6.417969l-17.792968 17.789062c-11.3125 11.3125-11.3125 29.652344 0 40.964844s29.652343 11.3125 40.964843 0l68.789063-68.792969-108.828125-108.828125zm0 0" fill="#ffcd00"/><path d="m455.417969 455.488281c-11.3125 11.3125-29.652344 11.3125-40.960938 0l-213.664062-213.664062 40.960937-40.960938 213.664063 213.664063c11.3125 11.308594 11.3125 29.652344 0 40.960937zm0 0" fill="#ffde55"/><path d="m247.644531 288.675781c7.785157-5.542969 15.214844-11.789062 22.195313-18.765625 6.976562-6.980468 13.226562-14.414062 18.769531-22.195312l-46.851563-46.855469-40.964843 40.964844zm0 0" fill="#ffcd00"/><path d="m48.238281 48.308594c-54.40625 54.40625-54.40625 142.617187 0 197.023437s142.617188 54.40625 197.023438 0 54.40625-142.617187 0-197.023437-142.617188-54.40625-197.023438 0zm153.015625 59.25v89.433594c0 2.394531-1.9375 4.335937-4.332031 4.335937h-89.433594c-20.671875 0-37.425781-16.757813-37.425781-37.425781 0-20.667969 16.753906-37.421875 37.425781-37.421875h17.566407c.746093 0 1.351562-.609375 1.351562-1.355469v-17.566406c0-20.667969 16.753906-37.421875 37.425781-37.421875 20.667969-.003907 37.421875 16.753906 37.421875 37.421875zm0 0" fill="#ffeb99"/><path d="m81.007812 212.558594c-48.824218-48.820313-53.824218-124.863282-15.023437-179.273438-6.21875 4.4375-12.164063 9.4375-17.746094 15.023438-54.410156 54.40625-54.410156 142.617187 0 197.023437 54.40625 54.40625 142.613281 54.40625 197.019531 0 5.585938-5.585937 10.585938-11.527343 15.023438-17.75-54.410156 38.800781-130.449219 33.800781-179.273438-15.023437zm0 0" fill="#ffde55"/><path d="m460.722656 409.222656-187.617187-187.617187c12.105469-20.421875 19.136719-43.613281 20.292969-67.746094 1.730468-36.273437-9.90625-71.6875-32.761719-99.710937-2.621094-3.210938-7.34375-3.6875-10.554688-1.070313-3.207031 2.617187-3.6875 7.339844-1.070312 10.550781 42.855469 52.542969 38.964843 128.378906-9.054688 176.398438-51.394531 51.394531-135.023437 51.394531-186.417969 0-51.394531-51.394532-51.394531-135.019532 0-186.417969 47.859376-47.855469 123.546876-51.867187 176.054688-9.332031 3.21875 2.605468 7.941406 2.109375 10.546875-1.109375 2.609375-3.21875 2.113281-7.941407-1.105469-10.546875-28.027344-22.703125-63.394531-34.234375-99.5625-32.4375-36.4375 1.796875-70.722656 17.003906-96.539062 42.820312-57.242188 57.242188-57.242188 150.386719 0 207.632813 28.621094 28.617187 66.21875 42.929687 103.8125 42.929687 25.910156 0 51.816406-6.796875 74.789062-20.386718l65.703125 65.699218-43.007812 43.007813c-14.214844 14.21875-14.214844 37.351562 0 51.570312 14.21875 14.214844 37.355469 14.21875 51.570312 0l15.699219-15.695312 16.292969 16.292969-15.699219 15.695312c-14.21875 14.21875-14.21875 37.351562 0 51.570312 6.886719 6.886719 16.046875 10.679688 25.785156 10.679688 9.742188 0 18.898438-3.792969 25.785156-10.679688l43.007813-43.007812 2.480469 2.480469c6.886718 6.886719 16.042968 10.679687 25.785156 10.679687 9.738281 0 18.898438-3.792968 25.785156-10.679687 14.21875-14.21875 14.21875-37.351563 0-51.570313zm-10.609375 40.964844c-4.050781 4.054688-9.441406 6.285156-15.175781 6.285156s-11.125-2.230468-15.179688-6.285156l-7.78125-7.785156-78.28125-78.28125c-2.929687-2.925782-7.679687-2.925782-10.605468 0-2.929688 2.929687-2.929688 7.679687 0 10.609375l72.976562 72.976562-43.007812 43.003907c-4.054688 4.054687-9.445313 6.289062-15.179688 6.289062-5.730468 0-11.121094-2.234375-15.175781-6.289062-8.371094-8.367188-8.371094-21.988282 0-30.355469l17.789063-17.789063c2.277343-2.277344 3.527343-5.300781 3.527343-8.515625 0-3.214843-1.253906-6.238281-3.527343-8.511719l-20.480469-20.480468c-4.691407-4.695313-12.332031-4.695313-17.023438 0l-17.792969 17.789062c-8.367187 8.371094-21.988281 8.371094-30.355468 0-4.054688-4.054687-6.289063-9.445312-6.289063-15.175781 0-5.734375 2.234375-11.125 6.289063-15.179687l43.007812-43.007813 5.441406 5.445313c1.464844 1.464843 3.386719 2.195312 5.304688 2.195312s3.839844-.730469 5.304688-2.195312c2.925781-2.929688 2.925781-7.675782 0-10.605469l-79.625-79.625c5.683593-4.226563 11.136718-8.910157 16.289062-14.0625 5.117188-5.117188 9.808594-10.566407 14.066406-16.296875l185.488282 185.488281c4.054687 4.054687 6.285156 9.445313 6.285156 15.179687 0 5.734376-2.230469 11.125-6.289063 15.179688zm0 0"/><path d="m118.90625 107.558594v11.417968h-11.417969c-12 0-23.28125 4.675782-31.765625 13.160157-8.488281 8.484375-13.160156 19.765625-13.160156 31.765625s4.671875 23.28125 13.160156 31.765625c8.484375 8.484375 19.765625 13.15625 31.765625 13.15625h89.433594c6.523437 0 11.832031-5.308594 11.832031-11.832031v-89.433594c0-24.773438-20.152344-44.925782-44.921875-44.925782-24.773437 0-44.925781 20.152344-44.925781 44.925782zm74.847656 0v86.269531h-86.265625c-7.996093 0-15.507812-3.113281-21.160156-8.765625s-8.765625-13.167969-8.765625-21.160156c0-7.992188 3.113281-15.507813 8.765625-21.160156 5.652344-5.652344 13.164063-8.765626 21.160156-8.765626h17.566407c4.882812 0 8.851562-3.972656 8.851562-8.851562v-17.566406c0-16.5 13.425781-29.925782 29.925781-29.925782s29.921875 13.425782 29.921875 29.925782zm0 0"/></svg>