<svg height="511pt" viewBox="1 -39 511.99934 511" width="511pt" xmlns="http://www.w3.org/2000/svg"><path d="m86.78125 78.601562h416.539062v312.40625c0 19.171876-15.539062 34.710938-34.710937 34.710938h-347.117187c-19.171876 0-34.710938-15.539062-34.710938-34.710938zm0 0" fill="#ffeb99"/><path d="m468.609375 9.175781h-347.117187c-19.171876 0-34.710938 15.542969-34.710938 34.714844v34.710937h416.539062v-34.710937c0-19.171875-15.539062-34.714844-34.710937-34.714844zm0 0" fill="#ff7956"/><path d="m451.253906 174.058594h-190.914062l95.457031 60.746094zm0 0" fill="#ffa733"/><path d="m260.339844 174.058594v112.8125l78.542968-62.828125zm0 0" fill="#ffc477"/><path d="m355.796875 234.804688-16.914063-10.761719-78.542968 62.828125c0 4.792968 3.882812 8.679687 8.675781 8.679687h173.5625c4.789063 0 8.675781-3.886719 8.675781-8.679687l-78.542968-62.828125zm0 0" fill="#ffb655"/><path d="m372.710938 224.042969 78.542968 62.828125v-112.8125zm0 0" fill="#ffc477"/><g fill="#2d2d30"><path d="m468.609375.5h-347.117187c-23.953126.027344-43.363282 19.4375-43.390626 43.390625v104.132813h17.355469v-60.746094h399.1875v303.730468c0 14.378907-11.65625 26.035157-26.035156 26.035157h-347.117187c-14.378907 0-26.035157-11.65625-26.035157-26.035157v-69.425781h-17.355469v69.425781c.027344 23.953126 19.4375 43.359376 43.390626 43.390626h347.117187c23.953125-.03125 43.363281-19.4375 43.390625-43.390626v-347.117187c-.027344-23.953125-19.4375-43.363281-43.390625-43.390625zm-373.152344 69.421875v-26.03125c0-14.378906 11.65625-26.035156 26.035157-26.035156h347.117187c14.378906 0 26.035156 11.65625 26.035156 26.035156v26.03125zm0 0"/><path d="m121.492188 35.210938h17.355468v17.355468h-17.355468zm0 0"/><path d="m156.203125 35.210938h17.355469v17.355468h-17.355469zm0 0"/><path d="m190.914062 35.210938h17.355469v17.355468h-17.355469zm0 0"/><path d="m442.578125 304.226562c9.582031 0 17.355469-7.769531 17.355469-17.355468v-112.8125c0-.234375-.113282-.433594-.132813-.667969-.019531-.582031-.089843-1.164063-.214843-1.734375-.054688-.183594-.183594-.332031-.242188-.511719-.148438-.363281-.3125-.710937-.503906-1.050781-.304688-.585938-.675782-1.132812-1.101563-1.632812-.246093-.285157-.503906-.554688-.78125-.808594-.53125-.453125-1.113281-.835938-1.738281-1.144532-.277344-.179687-.566406-.339843-.867188-.476562-.984374-.40625-2.035156-.628906-3.097656-.652344h-190.914062c-1.066406.015625-2.121094.230469-3.109375.625-.296875.136719-.585938.292969-.867188.46875-.625.3125-1.207031.703125-1.734375 1.164063-.277344.25-.519531.511719-.773437.789062-.429688.503907-.800781 1.058594-1.101563 1.648438-.1875.332031-.355468.675781-.496094 1.03125-.066406.191406-.199218.332031-.25.523437-.136718.582032-.207031 1.179688-.214843 1.777344 0 .226562-.132813.417969-.132813.652344v112.8125c0 9.585937 7.773438 17.355468 17.355469 17.355468zm-173.5625-114.355468 54.125 34.441406-54.125 44.257812zm69.546875 44.257812 12.574219 8.007813c2.84375 1.8125 6.476562 1.8125 9.320312 0l12.574219-8.007813 64.519531 52.742188h-163.507812zm104.015625 34.449219-54.136719-44.257813 54.136719-34.449218zm-21.125-85.839844-65.65625 41.773438-65.65625-41.773438zm0 0"/><path d="m112.8125 165.378906h121.492188v17.355469h-121.492188zm0 0"/><path d="m60.746094 165.378906h34.710937v17.355469h-34.710937zm0 0"/><path d="m164.882812 226.125h69.421876v17.355469h-69.421876zm0 0"/><path d="m130.167969 226.125h17.359375v17.355469h-17.359375zm0 0"/><path d="m78.101562 226.125h34.710938v17.355469h-34.710938zm0 0"/><path d="m8.679688 226.125h34.710937v17.355469h-34.710937zm0 0"/><path d="m147.527344 286.871094h86.777344v17.355468h-86.777344zm0 0"/><path d="m95.457031 286.871094h34.710938v17.355468h-34.710938zm0 0"/><path d="m60.746094 286.871094h17.355468v17.355468h-17.355468zm0 0"/><path d="m0 286.871094h34.710938v17.355468h-34.710938zm0 0"/><path d="m26.035156 165.378906h17.355469v17.355469h-17.355469zm0 0"/></g></svg>