<?xml version="1.0" encoding="iso-8859-1"?>
<!-- Generator: Adobe Illustrator 19.0.0, SVG Export Plug-In . SVG Version: 6.00 Build 0)  -->
<svg version="1.1" id="Capa_1" xmlns="http://www.w3.org/2000/svg" xmlns:xlink="http://www.w3.org/1999/xlink" x="0px" y="0px"
	 viewBox="0 0 511.999 511.999" style="enable-background:new 0 0 511.999 511.999;" xml:space="preserve">
<path style="fill:#B11E48;" d="M504.2,253.538c-4.888,82.063-71.048,175.479-232.638,250.683c-1.468,0.683-3.222,0.076-3.952-1.37
	l-6.652-13.181c-0.587-1.164-0.356-2.573,0.572-3.488l23.646-23.305c1.074-1.058,1.195-2.75,0.284-3.951l-19.71-25.964
	c-0.686-0.904-0.804-2.117-0.303-3.136l14.242-29.011c0.512-1.043,0.376-2.289-0.351-3.196l-19.754-24.687
	c-0.99-1.237-0.847-3.031,0.327-4.096l22.583-20.491c1.023-0.928,1.28-2.434,0.623-3.648l-16.491-30.506
	c-0.601-1.112-0.441-2.482,0.401-3.425l31.299-35.049c1.116-1.25,0.992-3.171-0.275-4.267l-29.503-25.516
	c-1.282-1.108-1.392-3.058-0.243-4.303l19.253-20.872c0.971-1.053,1.063-2.645,0.219-3.802l-15.586-21.37
	c-0.751-1.029-0.769-2.421-0.047-3.47l16.898-24.525c0,0,40.428-57.427,113.3-53.087C467.314,118.375,508.446,182.255,504.2,253.538
	z"/>
<path style="fill:#8F193A;" d="M402.344,114.505c-9.169-0.546-17.824-0.113-25.95,1.06c63.095,5.764,102.793,68.696,98.618,138.786
	c-4.669,78.38-65.241,167.116-211.466,240.45l4.063,8.051c0.73,1.446,2.483,2.053,3.951,1.37
	c161.592-75.205,227.752-168.621,232.64-250.684C508.446,182.255,467.314,118.375,402.344,114.505z"/>
<path style="fill:#B11E48;" d="M258.62,350.596l-21.99,28.297c-0.8,1.029-0.844,2.457-0.108,3.533l3.921,5.738
	c1.715,2.51-0.967,5.694-3.727,4.421C79.304,320.013,13.815,228.982,7.946,148.197C2.771,76.976,43.066,12.565,107.981,7.848
	c65.657-4.771,105.589,41.029,112.8,50.072c0.732,0.918,0.854,2.178,0.321,3.225L208.44,85.989
	c-0.579,1.135-0.377,2.512,0.503,3.434l18.264,19.132c0.989,1.036,1.108,2.626,0.284,3.798l-16.338,23.225
	c-0.975,1.386-0.609,3.304,0.807,4.234l32.605,21.41c1.401,0.92,1.776,2.808,0.835,4.194l-26.413,38.865
	c-0.711,1.046-0.689,2.425,0.053,3.448l20.363,28.07c0.811,1.118,0.754,2.644-0.138,3.699l-19.689,23.285
	c-1.023,1.21-0.929,3.007,0.216,4.103l22.832,21.872c0.839,0.804,1.139,2.021,0.768,3.122l-10.299,30.634
	c-0.362,1.076-0.085,2.263,0.714,3.069L258.62,350.596z"/>
<path style="fill:#8F193A;" d="M236.521,382.427c-0.735-1.076-0.692-2.504,0.108-3.533l21.99-28.297l-24.813-25.015
	c-0.799-0.805-1.075-1.993-0.714-3.069l10.299-30.634c0.37-1.102,0.071-2.318-0.768-3.122l-22.832-21.872
	c-1.144-1.096-1.239-2.893-0.216-4.103l19.689-23.285c0.892-1.054,0.948-2.581,0.138-3.699l-20.363-28.07
	c-0.742-1.023-0.763-2.402-0.053-3.448l26.413-38.865c0.942-1.386,0.566-3.274-0.835-4.194l-32.605-21.41
	c-1.416-0.93-1.782-2.848-0.807-4.234l16.338-23.225c0.824-1.171,0.705-2.762-0.284-3.797l-18.264-19.132
	c-0.88-0.922-1.081-2.299-0.503-3.434L221.1,61.144c0.533-1.046,0.411-2.307-0.321-3.225c-7.211-9.043-47.142-54.842-112.8-50.072
	c-8.747,0.636-17.043,2.364-24.845,5.038c62.145-1.728,99.903,41.598,106.895,50.367c0.732,0.918,0.854,2.178,0.321,3.225
	l-12.66,24.846c-0.579,1.135-0.377,2.512,0.503,3.434l18.264,19.132c0.989,1.036,1.108,2.626,0.284,3.798l-16.338,23.225
	c-0.975,1.386-0.609,3.304,0.807,4.234l32.605,21.41c1.401,0.92,1.776,2.808,0.835,4.194l-26.413,38.865
	c-0.711,1.046-0.69,2.425,0.053,3.448l20.363,28.07c0.811,1.118,0.754,2.644-0.138,3.699l-19.689,23.285
	c-1.023,1.21-0.929,3.007,0.216,4.103l22.832,21.872c0.839,0.804,1.139,2.021,0.768,3.123l-10.299,30.633
	c-0.362,1.076-0.085,2.263,0.714,3.069l24.813,25.015l-18.271,23.511c8.721,4.443,17.751,8.828,27.116,13.146
	c2.761,1.272,5.442-1.911,3.727-4.421L236.521,382.427z"/>
<path d="M330.977,464.656c-18.118,10.696-37.827,21.082-58.638,30.904l-3.207-6.354l21.31-21.001
	c3.745-3.692,4.172-9.636,0.992-13.827l-18.031-23.751l13.018-26.518c1.784-3.633,1.304-8.023-1.227-11.187l-17.111-21.384
	l19.449-17.647c3.59-3.256,4.487-8.508,2.183-12.77l-14.988-27.725l29.193-32.692c1.89-2.115,2.83-4.839,2.647-7.67
	c-0.183-2.831-1.465-5.412-3.609-7.265l-25.988-22.476l16.102-17.456c3.389-3.674,3.71-9.27,0.766-13.307l-13.705-18.792
	l15.038-21.825c0.023-0.032,2.367-3.321,6.829-8.133c2.816-3.037,2.637-7.783-0.4-10.599c-3.038-2.814-7.783-2.637-10.599,0.4
	c-5.212,5.621-7.974,9.525-8.131,9.749l-16.897,24.523c-2.528,3.667-2.463,8.549,0.162,12.146l13.408,18.383l-16.747,18.155
	c-1.916,2.077-2.924,4.888-2.765,7.709c0.159,2.822,1.476,5.502,3.614,7.351l26.045,22.525l-28.253,31.638
	c-2.938,3.289-3.503,8.106-1.406,11.987l14.813,27.403l-9.394,8.524c1.257-2.777,0.727-6.121-1.503-8.37l-22.858-23.043
	l9.414-28.002c1.29-3.838,0.233-8.128-2.689-10.926l-19.778-18.946l16.958-20.055c3.13-3.701,3.327-9.024,0.481-12.945
	l-18.507-25.511l24.636-36.25c1.595-2.347,2.168-5.171,1.614-7.953s-2.165-5.171-4.534-6.725l-28.721-18.859l13.665-19.424
	c2.874-4.087,2.457-9.676-0.993-13.292l-16.06-16.824l11.212-22c1.866-3.66,1.419-8.098-1.139-11.306
	C218.9,43.529,176.749-4.656,107.44,0.367C74.375,2.769,45.274,19.985,25.497,48.841C6.673,76.307-2.215,111.784,0.47,148.735
	c4.302,59.214,38.643,117.473,99.31,168.479c3.171,2.667,7.901,2.257,10.567-0.914c2.665-3.17,2.256-7.901-0.914-10.566
	c-57.495-48.34-90.001-103.005-94.003-158.086c-2.44-33.574,5.53-65.654,22.44-90.328c17.144-25.015,42.237-39.929,70.657-41.993
	c57.592-4.193,94.231,32.942,104.552,45.041l-11.32,22.213c-2.021,3.967-1.313,8.796,1.761,12.016l15.711,16.459l-14.213,20.204
	c-1.625,2.312-2.253,5.23-1.724,8.006c0.529,2.775,2.187,5.258,4.551,6.81l28.782,18.9l-23.841,35.081
	c-2.48,3.648-2.406,8.498,0.185,12.068l18.292,25.214l-17.411,20.59c-3.575,4.226-3.244,10.535,0.753,14.363l20.769,19.896
	l-9.389,27.926c-1.273,3.787-0.315,7.902,2.498,10.738l20.172,20.336l-17.947,23.092c-1.408,1.811-2.148,3.964-2.212,6.136
	c-35.455-17.043-67.119-35.625-94.261-55.331c-3.353-2.434-8.043-1.689-10.475,1.663c-2.434,3.352-1.689,8.042,1.663,10.475
	c30.801,22.361,67.189,43.274,108.154,62.161c1.438,0.663,2.948,0.984,4.436,0.983c2.998,0,5.91-1.304,7.971-3.743
	c3.087-3.652,3.349-8.758,0.652-12.704l-2.07-3.029l6.915-8.898c0.178,1.99,0.916,3.947,2.248,5.611l17.969,22.455l-12.983,26.448
	c-1.761,3.588-1.354,7.794,1.063,10.975l17.319,22.813l-20.83,20.53c-3.261,3.214-4.065,8.12-2.003,12.208l6.653,13.18
	c1.851,3.668,5.514,5.786,9.35,5.786c1.493,0,3.012-0.32,4.461-0.995c22.707-10.568,44.199-21.817,63.876-33.435
	c3.567-2.105,4.751-6.704,2.645-10.27S334.545,462.547,330.977,464.656z"/>
<path d="M485.356,154.417c-20.152-28.597-49.475-45.431-82.568-47.402c-30.535-1.826-59.226,6.212-85.297,23.867
	c-3.43,2.322-4.327,6.986-2.004,10.416c2.323,3.429,6.987,4.328,10.415,2.004c23.272-15.761,48.842-22.927,75.994-21.314
	c58.297,3.473,99.059,59.832,94.814,131.097c-2.895,48.602-29.353,121.85-138.96,194.801c-3.448,2.295-4.383,6.95-2.088,10.398
	c1.445,2.171,3.825,3.346,6.25,3.346c1.428,0,2.871-0.407,4.148-1.258c46.882-31.202,83.21-65.589,107.975-102.204
	c22.878-33.826,35.545-68.88,37.648-104.19C513.886,216.992,504.537,181.635,485.356,154.417z"/>
<g>
</g>
<g>
</g>
<g>
</g>
<g>
</g>
<g>
</g>
<g>
</g>
<g>
</g>
<g>
</g>
<g>
</g>
<g>
</g>
<g>
</g>
<g>
</g>
<g>
</g>
<g>
</g>
<g>
</g>
</svg>
