<?xml version="1.0" encoding="iso-8859-1"?>
<!-- Generator: Adobe Illustrator 19.0.0, SVG Export Plug-In . SVG Version: 6.00 Build 0)  -->
<svg version="1.1" id="Capa_1" xmlns="http://www.w3.org/2000/svg" xmlns:xlink="http://www.w3.org/1999/xlink" x="0px" y="0px"
	 viewBox="0 0 512 512" style="enable-background:new 0 0 512 512;" xml:space="preserve">
<g>
	<polygon style="fill:#B9B9B9;" points="366.933,469.333 349.867,503.467 68.267,503.467 51.2,469.333 102.4,469.333 
		315.733,469.333 	"/>
	<path style="fill:#B9B9B9;" d="M494.933,315.733v25.6c0,28.279-22.921,51.2-51.2,51.2h-68.267V358.4h55.467
		c14.14,0,25.6-11.46,25.6-25.6v-8.533c0-14.14-11.46-25.6-25.6-25.6h-55.467v-34.133h68.267
		C472.013,264.533,494.933,287.454,494.933,315.733z"/>
</g>
<path style="fill:#ECECEC;" d="M375.467,392.533V409.6c0,32.99-26.743,59.733-59.733,59.733H102.4
	c-32.99,0-59.733-26.743-59.733-59.733V221.867h332.8V392.533z M275.115,351.915c13.952-14.319,13.653-37.248-0.666-51.2
	c-14.063-13.696-36.471-13.696-50.534,0l-8.533,8.533l-8.533-8.533c-14.319-13.952-37.248-13.653-51.2,0.666
	c-13.696,14.063-13.696,36.471,0,50.534l59.733,59.733L275.115,351.915z"/>
<path style="fill:#E00022;" d="M275.115,300.715c14.14,14.097,14.165,36.992,0.068,51.132c-0.026,0.026-0.043,0.043-0.068,0.068
	l-59.733,59.733l-59.733-59.733c-13.952-14.319-13.653-37.248,0.666-51.2c14.063-13.696,36.471-13.696,50.534,0l8.533,8.533
	l8.533-8.533C238.063,286.609,260.966,286.609,275.115,300.715z"/>
<g>
	<path style="fill:#ECECEC;" d="M162.133,187.733h-17.067c0.247-9.617-2.355-19.098-7.492-27.23
		c-6.519-10.641-9.839-22.929-9.574-35.405c-0.154-8.149,1.22-16.256,4.062-23.893c1.562-3.968,3.413-7.808,5.538-11.503
		c1.579-2.756,2.987-5.606,4.207-8.533c2.33-5.922,3.439-12.254,3.26-18.62c0.256-9.617-2.355-19.098-7.501-27.23
		C131.064,24.704,127.736,12.45,128,0h17.067c-0.247,9.591,2.355,19.038,7.484,27.145c6.519,10.641,9.847,22.929,9.583,35.405
		c0.179,8.542-1.34,17.033-4.471,24.977c-1.374,3.371-2.97,6.647-4.77,9.805c-1.86,3.2-3.49,6.528-4.873,9.958
		c-2.108,5.692-3.106,11.742-2.953,17.809c-0.247,9.617,2.355,19.098,7.492,27.238C159.078,162.978,162.398,175.258,162.133,187.733
		z"/>
	<path style="fill:#ECECEC;" d="M230.4,187.733h-17.067c0.247-9.617-2.355-19.098-7.492-27.23
		c-6.519-10.641-9.839-22.929-9.574-35.405c-0.154-8.149,1.22-16.256,4.062-23.893c1.562-3.968,3.413-7.808,5.538-11.503
		c1.579-2.756,2.987-5.606,4.207-8.533c2.33-5.922,3.439-12.254,3.26-18.62c0.256-9.617-2.355-19.098-7.501-27.23
		C199.33,24.704,196.002,12.45,196.267,0h17.067c-0.247,9.591,2.355,19.038,7.484,27.145c6.519,10.641,9.847,22.929,9.583,35.405
		c0.179,8.542-1.34,17.033-4.471,24.977c-1.374,3.371-2.97,6.647-4.77,9.805c-1.86,3.2-3.49,6.528-4.873,9.958
		c-2.108,5.692-3.106,11.742-2.953,17.809c-0.247,9.617,2.355,19.098,7.492,27.238C227.345,162.978,230.665,175.258,230.4,187.733z"
		/>
	<path style="fill:#ECECEC;" d="M298.667,187.733H281.6c0.247-9.617-2.355-19.098-7.492-27.23
		c-6.519-10.641-9.839-22.929-9.574-35.405c-0.154-8.149,1.22-16.256,4.062-23.893c1.562-3.968,3.413-7.808,5.538-11.503
		c1.579-2.756,2.987-5.606,4.207-8.533c2.33-5.922,3.439-12.254,3.26-18.62c0.256-9.617-2.355-19.098-7.501-27.23
		c-6.502-10.615-9.83-22.869-9.566-35.319H281.6c-0.247,9.591,2.355,19.038,7.484,27.145c6.519,10.641,9.847,22.929,9.583,35.405
		c0.179,8.542-1.34,17.033-4.471,24.977c-1.374,3.371-2.97,6.647-4.77,9.805c-1.86,3.2-3.49,6.528-4.873,9.958
		c-2.108,5.692-3.106,11.742-2.953,17.809c-0.247,9.617,2.355,19.098,7.492,27.238C295.612,162.978,298.931,175.258,298.667,187.733
		z"/>
</g>
<g>
	<path style="fill:#B9B9B9;" d="M315.733,443.733v-17.067c9.429,0,17.067-7.637,17.067-17.067h17.067
		C349.867,428.45,334.584,443.733,315.733,443.733z"/>
	<rect x="332.8" y="375.467" style="fill:#B9B9B9;" width="17.067" height="17.067"/>
	<rect x="8.533" y="460.8" style="fill:#B9B9B9;" width="401.067" height="17.067"/>
	<path style="fill:#B9B9B9;" d="M349.867,512h-281.6c-3.234,0-6.195-1.826-7.637-4.719l-17.067-34.133l15.275-7.629l14.703,29.414
		h271.053l14.703-29.414l15.275,7.629l-17.067,34.133C356.062,510.174,353.101,512,349.867,512z"/>
</g>
<path d="M137.574,35.362c5.137,8.124,7.74,17.579,7.492,27.187c0.179,6.357-0.913,12.681-3.217,18.603
	c-1.254,2.953-2.679,5.837-4.267,8.627c-2.108,3.686-3.959,7.509-5.53,11.452c-2.825,7.646-4.198,15.744-4.036,23.893
	c-0.265,12.467,3.055,24.755,9.574,35.388c5.137,8.132,7.731,17.604,7.475,27.221h17.067c0.265-12.467-3.055-24.747-9.574-35.379
	c-5.129-8.132-7.74-17.604-7.492-27.213c-0.145-6.067,0.836-12.109,2.91-17.818c1.314-3.226,2.85-6.366,4.591-9.387
	c1.911-3.354,3.627-6.81,5.12-10.368c3.123-7.962,4.634-16.469,4.446-25.02c0.265-12.459-3.055-24.738-9.574-35.362
	c-5.137-8.124-7.74-17.579-7.492-27.187H128C127.736,12.459,131.055,24.738,137.574,35.362z"/>
<path d="M220.834,97.911c1.911-3.354,3.627-6.81,5.12-10.368c3.115-7.953,4.625-16.452,4.446-24.994
	c0.265-12.459-3.055-24.738-9.574-35.362c-5.137-8.124-7.74-17.579-7.492-27.187h-17.067c-0.265,12.459,3.055,24.738,9.574,35.362
	c5.137,8.124,7.74,17.579,7.492,27.187c0.179,6.357-0.913,12.681-3.217,18.603c-1.254,2.953-2.679,5.837-4.267,8.627
	c-2.108,3.686-3.959,7.509-5.53,11.452c-2.825,7.646-4.198,15.744-4.036,23.893c-0.265,12.467,3.055,24.755,9.574,35.388
	c5.137,8.132,7.731,17.604,7.475,27.221H230.4c0.265-12.467-3.055-24.747-9.574-35.379c-5.129-8.132-7.74-17.604-7.492-27.213
	c-0.145-6.067,0.836-12.109,2.91-17.818C217.557,104.09,219.093,100.941,220.834,97.911z"/>
<path d="M289.101,97.911c1.911-3.354,3.627-6.81,5.12-10.368c3.115-7.953,4.625-16.452,4.446-24.994
	c0.265-12.459-3.055-24.738-9.574-35.362C283.955,19.063,281.353,9.609,281.6,0h-17.067c-0.265,12.459,3.055,24.738,9.574,35.362
	c5.137,8.124,7.74,17.579,7.492,27.187c0.179,6.357-0.913,12.681-3.217,18.603c-1.254,2.953-2.679,5.837-4.267,8.627
	c-2.108,3.686-3.959,7.509-5.53,11.452c-2.825,7.646-4.198,15.744-4.036,23.893c-0.265,12.467,3.055,24.755,9.574,35.388
	c5.137,8.132,7.731,17.604,7.475,27.221h17.067c0.265-12.467-3.055-24.747-9.574-35.379c-5.129-8.132-7.74-17.604-7.492-27.213
	c-0.145-6.067,0.836-12.109,2.91-17.818C285.824,104.09,287.36,100.941,289.101,97.911z"/>
<path d="M349.867,409.6H332.8c0,9.429-7.637,17.067-17.067,17.067v17.067C334.584,443.733,349.867,428.45,349.867,409.6z"/>
<rect x="332.8" y="375.467" width="17.067" height="17.067"/>
<path d="M503.467,315.733c-0.034-32.973-26.761-59.699-59.733-59.733H384v-34.133c0-4.71-3.823-8.533-8.533-8.533h-332.8
	c-4.71,0-8.533,3.823-8.533,8.533V409.6c0.009,19.618,8.491,38.281,23.262,51.2H8.533v17.067h37.393l14.703,29.414
	c1.442,2.893,4.403,4.719,7.637,4.719h281.6c3.251,0.017,6.229-1.809,7.68-4.719l14.66-29.414H409.6V460.8h-48.862
	c14.771-12.919,23.253-31.582,23.262-51.2v-8.533h59.733c32.973-0.034,59.699-26.761,59.733-59.733L503.467,315.733L503.467,315.733
	z M344.593,494.933H73.54l-8.533-17.067h288.119L344.593,494.933z M366.933,409.6c-0.026,28.262-22.938,51.174-51.2,51.2H102.4
	c-28.262-0.026-51.174-22.938-51.2-51.2V230.4h315.733V409.6z M384,307.2h46.933c9.429,0,17.067,7.637,17.067,17.067v8.533
	c0,9.429-7.637,17.067-17.067,17.067H384V307.2z M486.4,341.333c-0.026,23.552-19.115,42.641-42.667,42.667H384v-17.067h46.933
	c18.85,0,34.133-15.283,34.133-34.133v-8.533c0-18.85-15.283-34.133-34.133-34.133H384v-17.067h59.733
	c23.552,0.026,42.641,19.115,42.667,42.667V341.333z"/>
<path d="M209.374,417.707c3.328,3.328,8.738,3.328,12.066,0l59.733-59.733c17.468-17.468,17.468-45.798,0-63.266
	s-45.798-17.468-63.266,0l-2.5,2.5l-2.5-2.5c-17.468-17.468-45.798-17.468-63.266,0s-17.468,45.798,0,63.266L209.374,417.707z
	 M161.707,306.773c10.812-10.795,28.322-10.795,39.134,0l8.533,8.533c3.328,3.328,8.738,3.328,12.066,0l8.533-8.533
	c10.684-10.931,28.203-11.127,39.134-0.444c10.931,10.684,11.127,28.203,0.444,39.134c-0.145,0.154-0.29,0.299-0.444,0.444
	l-53.7,53.7l-53.7-53.7C150.921,335.095,150.921,317.585,161.707,306.773z"/>
<g>
</g>
<g>
</g>
<g>
</g>
<g>
</g>
<g>
</g>
<g>
</g>
<g>
</g>
<g>
</g>
<g>
</g>
<g>
</g>
<g>
</g>
<g>
</g>
<g>
</g>
<g>
</g>
<g>
</g>
</svg>
