<?xml version="1.0" encoding="iso-8859-1"?>
<!-- Generator: Adobe Illustrator 19.0.0, SVG Export Plug-In . SVG Version: 6.00 Build 0)  -->
<svg version="1.1" id="Capa_1" xmlns="http://www.w3.org/2000/svg" xmlns:xlink="http://www.w3.org/1999/xlink" x="0px" y="0px"
	 viewBox="0 0 512.001 512.001" style="enable-background:new 0 0 512.001 512.001;" xml:space="preserve">
<path style="fill:#303C42;" d="M248.063,167.125c2.021,2.25,4.917,3.542,7.938,3.542c3.021,0,5.917-1.292,7.938-3.542l53.625-59.76
	c8.438-9.5,13.104-22.063,13.104-35.365c0-27.938-20.729-50.667-46.229-50.667c-9.792,0-19.458,5.031-28.438,14.677
	c-8.979-9.646-18.646-14.677-28.438-14.677c-25.5,0-46.229,22.729-46.229,50.667c0,13.302,4.667,25.865,13.146,35.406
	L248.063,167.125z"/>
<path style="fill:#D32F2F;" d="M227.563,42.667c5.375,0,12.688,6.188,19.542,16.552c3.958,5.979,13.833,5.979,17.792,0
	c6.854-10.365,14.167-16.552,19.542-16.552c13.729,0,24.896,13.156,24.896,29.333c0,8.063-2.75,15.594-7.688,21.156l-45.646,50.875
	l-45.604-50.833c-4.979-5.604-7.729-13.135-7.729-21.198C202.667,55.823,213.834,42.667,227.563,42.667z"/>
<path style="fill:#303C42;" d="M508.876,472.459c-15.146-15.146-32.854-27-52.625-35.24l-30.417-12.667
	c-10.188-4.25-18.521-11.927-23.667-21.469c3.375-0.427,5.875-0.708,6.292-0.865c3.688,3.677,9.5,4.146,13.729,1.146
	c3.063-2.188,4.667-5.74,4.458-9.313c6.271,0.448,12.958-0.771,18.229-6.052c4.167-4.167,4.167-10.917,0-15.083
	c-4.146-4.135-4.063-12.563-4-18.719c0-0.031,0.021-2.156,0.021-2.188c0-6.688,1.146-8.396,3.646-12.125
	c5.771-8.656,10.563-17.99,10.563-44.771c0-42.24-33.875-124.448-96-124.448c-11.792,0-20.271,4.156-24.833,7.115h-3.604
	c-46.667,0-81.771,71.177-81.771,117.333c0,26.781,4.792,36.115,10.562,44.771c2.5,3.729,3.646,5.438,3.646,12.125
	c0,0.031,0.021,2.156,0.021,2.188c0.063,6.156,0.146,14.583-4,18.719c-2,2-3.125,4.708-3.125,7.542c0,2.833,1.125,5.542,3.125,7.542
	c5.271,5.281,12.021,6.417,18.063,6.104c-0.458,3.76,0.688,7.656,3.771,9.854c4.229,3.021,9.229,3.104,12.875-0.552
	c1.271-0.417,4.229-0.448,7.917-0.146c-5.125,9.448-13.354,17.031-23.167,21.125l-14.827,5.477l-10.736-3.581
	c-9.708-3.24-18.188-9.708-23.854-18.219l-3.396-5.094c-1.979-2.969-5.313-4.75-8.875-4.75h-5.875l-3.708-14.802
	c10.521-12.458,17.229-28.229,19.438-38.896c13.75-12.24,15.042-48.958,15.042-49.406c0-7.719-2.188-15.49-6.479-20.948
	c3.229-6.573,5.708-14.927,6.333-24.271l4.125-4.135c2-2,3.125-4.719,3.125-7.542c0-32.49-31.271-67.552-81.771-67.552
	c-27.375,0-41.771,9.448-47.813,14.896c-15.042,3.76-33.979,22.729-33.979,45.552l-0.042,6.854
	c-0.104,15.563,0.021,26.427,1.292,34.104c-5.521,5.438-8.354,14.271-8.354,23.042c0,0.448,1.292,37.167,15.042,49.406
	c2.208,10.667,8.917,26.438,19.438,38.896l-3.708,14.802h-5.875c-3.563,0-6.896,1.781-8.875,4.75l-3.396,5.094
	c-5.667,8.51-14.146,14.979-23.854,18.219l-22.333,7.448c-14,4.667-27.625,17.49-42.875,40.354
	c-3.271,4.906-1.937,11.521,2.958,14.792c1.813,1.208,3.875,1.792,5.917,1.792h490.667c2.729,0,5.458-1.042,7.542-3.125
	C513.042,483.375,513.042,476.625,508.876,472.459z"/>
<path style="fill:#F2E1DE;" d="M326.792,397.261c0.688-2.802,0.229-5.76-1.292-8.208c-1.521-2.448-3.958-4.177-6.792-4.792
	c-6.188-1.365-11.729-2.177-16.583-2.458c-0.292-2.615-1.188-5.167-3.083-7.427c-4.021-4.854-10.063-5.281-15.458-3.625
	c-0.146,0.063-0.313,0.135-0.458,0.198c1.438-6.604,1.354-13.313,1.313-18.938c0-13.156-4.021-19.167-7.229-23.99
	c-3.271-4.885-6.979-10.417-6.979-32.906c0-36.167,28.25-96,60.438-96h7.188c2.896,0,5.542-1.167,7.458-3.052
	c1.458-1.052,6.25-4.063,13.792-4.063c45.583,0,74.667,67.708,74.667,103.115c0,22.49-3.708,28.021-6.979,32.906
	c-3.208,4.823-7.229,10.833-7.25,25.969c-0.042,4.542-0.104,10.667,1.292,16.958c-0.646-0.229-1.313-0.49-1.979-0.771
	c-3.938-1.063-9.854-0.625-13.896,4.198c-1.896,2.26-2.792,4.813-3.083,7.427c-4.854,0.281-10.396,1.104-16.583,2.458
	c-2.833,0.615-5.271,2.344-6.792,4.792c-1.521,2.448-1.979,5.406-1.292,8.208c5.25,21.052,20.354,38.625,40.417,46.979
	l30.417,12.667c8.171,3.406,15.867,7.632,23.181,12.427H314.92c-6.493-9.288-14.777-19.734-24.642-27.29
	C308.282,433.103,321.907,416.851,326.792,397.261z"/>
<path style="opacity:0.2;fill:#FFFFFF;enable-background:new    ;" d="M302.115,381.76c0.117-2.947,0.113-5.815,0.094-8.415
	c0-13.156-4.021-19.167-7.229-23.99c-3.271-4.885-6.979-10.417-6.979-32.906c0-36.167,28.25-96,60.438-96h7.188
	c2.896,0,5.542-1.167,7.458-3.052c1.458-1.052,6.25-4.063,13.792-4.063c13.292,0,25.129,5.859,35.302,14.893
	C399.276,207.875,381.144,192,359.105,192c-7.542,0-12.333,3.01-13.792,4.063c-1.917,1.885-4.563,3.052-7.458,3.052h-7.188
	c-32.188,0-60.438,59.833-60.438,96c0,22.49,3.708,28.021,6.979,32.906c3.208,4.823,7.229,10.833,7.229,23.99
	c0.042,5.625,0.125,12.333-1.313,18.938c0.146-0.063,0.313-0.135,0.458-0.198c5.396-1.656,11.438-1.229,15.458,3.625
	C300.928,376.623,301.817,379.159,302.115,381.76z"/>
<g>
	<path style="fill:#F2E1DE;" d="M51.417,453.959l22.333-7.448c14.188-4.729,26.563-14.177,34.854-26.615l8.729-0.344
		c4.896,0,9.167-3.333,10.354-8.073l7.125-28.438c0.896-3.635-0.167-7.49-2.813-10.135c-12.354-12.354-18.146-31.125-18.208-35.125
		c0-4.656-2.979-8.615-7.146-10.073c-3.542-5.948-7.063-26.583-7.083-32.594c0-2.979,1.125-6.844,0.042-7.073
		c4.313,0,8.771-1.833,10.417-5.823c1.646-3.99,1.313-7.823-1.75-10.865c-1.854-4.417-1.708-23.865-1.646-33.219l0.042-7.021
		c0-14.427,14.125-24.427,17.792-24.896c3.125,0,6.313-1.635,8.354-4.031c0.354-0.406,8.938-10.188,34.313-10.188
		c36.708,0,57.438,23.26,60.146,42.104l-3.688,3.688c-2,2-3.125,4.719-3.125,7.542c0,12.667-5.208,22.125-7.583,24.49
		c-3.042,3.052-4.958,7.271-3.292,11.26c1.646,3.99,4.542,6.219,8.854,6.219c0.896,0.969,2.021,4.833,2.021,7.813
		c-0.021,6.021-3.542,26.698-7.104,32.625c-4.104,1.479-7.063,5.448-7.125,10.031c-0.063,4.01-5.854,22.781-18.208,35.135
		c-2.646,2.646-3.708,6.5-2.813,10.135l7.125,28.438c1.188,4.74,5.458,8.073,10.354,8.073h8.5l0.229,0.344
		c8.292,12.438,20.667,21.885,34.854,26.615l22.333,7.448c5.73,1.913,12.214,7.296,19.237,15.375H32.175
		C39.201,461.254,45.69,455.87,51.417,453.959z"/>
	<path style="fill:#F2E1DE;" d="M61.91,464.625l22.333-7.448c14.188-4.729,26.563-14.177,34.854-26.615l8.729-0.344
		c4.896,0,9.167-3.333,10.354-8.073l7.125-28.438c0.896-3.635-0.167-7.49-2.813-10.135c-12.354-12.354-18.146-31.125-18.208-35.125
		c0-4.656-2.979-8.615-7.146-10.073c-3.542-5.948-7.063-26.583-7.083-32.594c0-2.979,1.125-6.844,0.042-7.073
		c4.313,0,8.771-1.833,10.417-5.823c1.646-3.99,1.313-7.823-1.75-10.865c-1.854-4.417-1.708-23.865-1.646-33.219l0.042-7.021
		c0-14.427,14.125-24.427,17.792-24.896c3.125,0,6.313-1.635,8.354-4.031c0.354-0.406,8.938-10.188,34.313-10.188
		c17.621,0,31.454,5.427,41.486,13.086C209.585,202.885,192.178,192,167.126,192c-25.375,0-33.958,9.781-34.313,10.188
		c-2.042,2.396-5.229,4.031-8.354,4.031c-3.667,0.469-17.792,10.469-17.792,24.896l-0.042,7.021
		c-0.063,9.354-0.208,28.802,1.646,33.219c3.063,3.042,3.396,6.875,1.75,10.865c-1.646,3.99-6.104,5.823-10.417,5.823
		c1.083,0.229-0.042,4.094-0.042,7.073c0.021,6.01,3.542,26.646,7.083,32.594c4.167,1.458,7.146,5.417,7.146,10.073
		c0.063,4,5.854,22.771,18.208,35.125c2.646,2.646,3.709,6.5,2.813,10.135l-7.125,28.438c-1.188,4.74-5.458,8.073-10.354,8.073
		l-8.729,0.344c-8.292,12.438-20.667,21.885-34.854,26.615l-22.333,7.448c-5.728,1.911-12.216,7.296-19.242,15.375h21.549
		C56.587,467.142,59.335,465.485,61.91,464.625z"/>
</g>
<path style="opacity:0.1;enable-background:new    ;" d="M304.835,55.263c-0.219,7.681-2.781,14.865-7.522,20.195l-33.441,37.272
	c-6.516,7.262-17.893,7.263-24.41,0.001L206.053,75.5c-1.4-1.576-2.185-3.591-3.219-5.44c-0.036,0.654-0.167,1.276-0.167,1.94
	c0,8.063,2.74,15.594,7.719,21.198l45.615,50.833l45.646-50.875c4.948-5.563,7.688-13.094,7.688-21.156
	C309.334,65.773,307.654,60.017,304.835,55.263z"/>
<linearGradient id="SVGID_1_" gradientUnits="userSpaceOnUse" x1="-38.0789" y1="643.9465" x2="-31.8898" y2="641.0615" gradientTransform="matrix(21.3333 0 0 -21.3333 996.3252 13791.6758)">
	<stop  offset="0" style="stop-color:#FFFFFF;stop-opacity:0.2"/>
	<stop  offset="1" style="stop-color:#FFFFFF;stop-opacity:0"/>
</linearGradient>
<path style="fill:url(#SVGID_1_);" d="M248.063,167.125c2.021,2.25,4.917,3.542,7.938,3.542c3.021,0,5.917-1.292,7.938-3.542
	l53.625-59.76c8.438-9.5,13.104-22.063,13.104-35.365c0-27.938-20.729-50.667-46.229-50.667c-9.792,0-19.458,5.031-28.438,14.677
	c-8.979-9.646-18.646-14.677-28.438-14.677c-25.5,0-46.229,22.729-46.229,50.667c0,13.302,4.667,25.865,13.146,35.406
	L248.063,167.125z"/>
<linearGradient id="SVGID_2_" gradientUnits="userSpaceOnUse" x1="-43.7744" y1="633.8007" x2="-22.6637" y2="623.9573" gradientTransform="matrix(21.3333 0 0 -21.3333 996.3252 13791.6758)">
	<stop  offset="0" style="stop-color:#FFFFFF;stop-opacity:0.2"/>
	<stop  offset="1" style="stop-color:#FFFFFF;stop-opacity:0"/>
</linearGradient>
<path style="fill:url(#SVGID_2_);" d="M508.876,472.459c-15.146-15.146-32.854-27-52.625-35.24l-30.417-12.667
	c-10.188-4.25-18.521-11.927-23.667-21.469c3.375-0.427,5.875-0.708,6.292-0.865c3.688,3.677,9.5,4.146,13.729,1.146
	c3.063-2.188,4.667-5.74,4.458-9.313c6.271,0.448,12.958-0.771,18.229-6.052c4.167-4.167,4.167-10.917,0-15.083
	c-4.146-4.135-4.063-12.563-4-18.719c0-0.031,0.021-2.156,0.021-2.188c0-6.688,1.146-8.396,3.646-12.125
	c5.771-8.656,10.563-17.99,10.563-44.771c0-42.24-33.875-124.448-96-124.448c-11.792,0-20.271,4.156-24.833,7.115h-3.604
	c-46.667,0-81.771,71.177-81.771,117.333c0,26.781,4.792,36.115,10.562,44.771c2.5,3.729,3.646,5.438,3.646,12.125
	c0,0.031,0.021,2.156,0.021,2.188c0.063,6.156,0.146,14.583-4,18.719c-2,2-3.125,4.708-3.125,7.542c0,2.833,1.125,5.542,3.125,7.542
	c5.271,5.281,12.021,6.417,18.063,6.104c-0.458,3.76,0.688,7.656,3.771,9.854c4.229,3.021,9.229,3.104,12.875-0.552
	c1.271-0.417,4.229-0.448,7.917-0.146c-5.125,9.448-13.354,17.031-23.167,21.125l-14.827,5.477l-10.736-3.581
	c-9.708-3.24-18.188-9.708-23.854-18.219l-3.396-5.094c-1.979-2.969-5.313-4.75-8.875-4.75h-5.875l-3.708-14.802
	c10.521-12.458,17.229-28.229,19.438-38.896c13.75-12.24,15.042-48.958,15.042-49.406c0-7.719-2.188-15.49-6.479-20.948
	c3.229-6.573,5.708-14.927,6.333-24.271l4.125-4.135c2-2,3.125-4.719,3.125-7.542c0-32.49-31.271-67.552-81.771-67.552
	c-27.375,0-41.771,9.448-47.813,14.896c-15.042,3.76-33.979,22.729-33.979,45.552l-0.042,6.854
	c-0.104,15.563,0.021,26.427,1.292,34.104c-5.521,5.438-8.354,14.271-8.354,23.042c0,0.448,1.292,37.167,15.042,49.406
	c2.208,10.667,8.917,26.438,19.438,38.896l-3.708,14.802h-5.875c-3.563,0-6.896,1.781-8.875,4.75l-3.396,5.094
	c-5.667,8.51-14.146,14.979-23.854,18.219l-22.333,7.448c-14,4.667-27.625,17.49-42.875,40.354
	c-3.271,4.906-1.937,11.521,2.958,14.792c1.813,1.208,3.875,1.792,5.917,1.792h490.667c2.729,0,5.458-1.042,7.542-3.125
	C513.042,483.375,513.042,476.625,508.876,472.459z"/>
<g>
</g>
<g>
</g>
<g>
</g>
<g>
</g>
<g>
</g>
<g>
</g>
<g>
</g>
<g>
</g>
<g>
</g>
<g>
</g>
<g>
</g>
<g>
</g>
<g>
</g>
<g>
</g>
<g>
</g>
</svg>
