<svg height="512.002pt" viewBox="0 0 512.002 512.002" width="512.002pt" xmlns="http://www.w3.org/2000/svg"><path d="m485.523438 213.589844h-45.679688c-4.621094-20.109375-12.558594-39.609375-23.839844-57.617188l32.28125-32.28125c6.4375-6.433594 6.4375-16.867187 0-23.300781l-36.675781-36.675781c-6.433594-6.4375-16.867187-6.4375-23.300781 0l-32.28125 32.277344c-18.007813-11.277344-37.507813-19.214844-57.617188-23.835938v-45.679688c0-9.097656-7.375-16.476562-16.476562-16.476562h-51.867188c-9.097656 0-16.476562 7.378906-16.476562 16.476562v45.679688c-20.109375 4.621094-39.605469 12.558594-57.613282 23.839844l-32.28125-32.28125c-6.4375-6.4375-16.867187-6.4375-23.304687 0l-36.675781 36.675781c-6.4375 6.433594-6.4375 16.867187 0 23.300781l32.28125 32.28125c-11.28125 18.007813-19.21875 37.507813-23.839844 57.617188h-45.679688c-9.097656 0-16.476562 7.375-16.476562 16.476562v51.867188c0 9.101562 7.378906 16.476562 16.476562 16.476562h45.679688c4.621094 20.109375 12.558594 39.609375 23.839844 57.617188l-32.28125 32.28125c-6.4375 6.433594-6.4375 16.867187 0 23.300781l36.675781 36.675781c6.433594 6.4375 16.867187 6.4375 23.300781 0l32.28125-32.28125c18.007813 11.28125 37.507813 19.21875 57.617188 23.839844v45.679688c0 9.097656 7.375 16.476562 16.476562 16.476562h51.867188c9.097656 0 16.476562-7.378906 16.476562-16.476562v-45.679688c20.109375-4.621094 39.605469-12.558594 57.613282-23.839844l30.925781 30.925782c7.183593 7.183593 18.832031 7.183593 26.019531 0l33.957031-33.960938c7.183594-7.183594 7.183594-18.832031 0-26.019531l-30.921875-30.921875c11.277344-18.007813 19.21875-37.507813 23.835938-57.617188h45.679687c9.101563 0 16.476563-7.375 16.476563-16.476562v-51.867188c.003906-9.101562-7.375-16.476562-16.472656-16.476562zm-88.929688 109.046875c0 14.394531-11.671875 26.0625-26.066406 26.0625h-30.054688c-49.214844 44.917969-125.554687 43.578125-173.152344-4.019531-6.125-6.121094-11.480468-12.71875-16.074218-19.671876-1.289063-1.957031-2.519532-3.941406-3.691406-5.949218-.257813-.449219-.515626-.894532-.769532-1.34375-.890625-1.574219-1.742187-3.160156-2.558594-4.761719-1.167968-2.285156-2.257812-4.601563-3.273437-6.941406-.203125-.464844-.402344-.9375-.601563-1.40625-.296874-.703125-.585937-1.410157-.867187-2.121094-.28125-.707031-.558594-1.417969-.828125-2.132813-.179688-.476562-.355469-.953124-.527344-1.429687-.175781-.476563-.34375-.953125-.511718-1.433594-.335938-.957031-.65625-1.917969-.96875-2.882812-.234376-.722657-.460938-1.445313-.679688-2.171875-.292969-.96875-.574219-1.9375-.84375-2.914063-.402344-1.457031-.777344-2.925781-1.128906-4.398437-.117188-.488282-.230469-.980469-.339844-1.472656-.167969-.734376-.328125-1.472657-.480469-2.214844-.355469-1.726563-.671875-3.457032-.957031-5.195313-.242188-1.488281-.457031-2.980469-.644531-4.472656-.09375-.75-.183594-1.496094-.261719-2.246094-.054688-.5-.105469-1-.152344-1.5-.050781-.496093-.09375-1-.136718-1.5-.042969-.5-.082032-1-.117188-1.5-.015625-.25-.035156-.5-.050781-.75-.03125-.5-.0625-1-.089844-1.5-.027344-.503906-.050781-1.003906-.070313-1.503906-.023437-.5-.039062-1.003906-.054687-1.503906-.015625-.503907-.027344-1.003907-.035156-1.503907-.011719-.5-.015625-1.003906-.019531-1.503906-.007813-1.003906 0-2.007812.019531-3.011718.007812-.5.019531-1 .035156-1.503907.015625-.5.03125-1 .054687-1.503906.019532-.488281.042969-.976563.070313-1.464844.039063-.761719.085937-1.527343.140625-2.289062.035156-.5.074219-1 .117188-1.5.039062-.476563.082031-.957031.128906-1.429688.023437-.273437.050781-.546875.078125-.820312.304687-2.996094.71875-5.984375 1.238281-8.957031.136719-.785157.28125-1.566407.433594-2.347657.089844-.453125.179687-.90625.273437-1.359375.152344-.742187.3125-1.476562.476563-2.214844.054687-.246093.113281-.492187.167968-.738281 1.195313-5.15625 2.714844-10.25 4.566407-15.25.175781-.476562.355469-.953125.539062-1.425781.183594-.472656.367188-.949219.554688-1.421875.191406-.472656.382812-.945313.574219-1.414063 2.625-6.359374 5.792968-12.542968 9.503906-18.484374.136718-.21875.277344-.4375.417968-.65625 3.921876-6.195313 8.445313-12.121094 13.558594-17.695313.015625-.015625.03125-.03125.046875-.046875.210938-.234375.425781-.464844.640625-.695312.039063-.039063.078125-.078126.113282-.121094.457031-.488282.921874-.972656 1.386718-1.457032.058594-.0625.121094-.125.179688-.1875.175781-.179687.347656-.359374.523437-.539062.066407-.066406.132813-.132812.199219-.199219.230469-.234375.460938-.46875.691406-.699219.0625-.0625.125-.125.191406-.1875 47.609376-47.414062 123.8125-48.691406 172.960938-3.835937h30.054688c.113281 0 .222656 0 .332031.003906h.140625c.0625.003907.125.003907.1875.003907.058594.003906.117187.003906.171875.007812.050781 0 .105469 0 .15625.003906.0625 0 .125.003906.1875.007813.046875 0 .09375.003906.140625.003906.058594.003906.117187.007813.175781.011719.050781.003906.101563.003906.152344.007812.066406.003906.136719.011719.207031.015625.035156 0 .070312.003907.105469.007813.078125.003906.152343.011718.226562.019531.03125 0 .066407.003906.097657.007813.082031.003906.164062.011718.246093.019531.023438.003906.046875.003906.066407.007812.085937.007813.175781.015625.261718.027344.019532 0 .039063.003906.058594.003906l.28125.035157h.023438c.101562.015624.203124.027343.304687.042968h.003906c12.730469 1.71875 22.542969 12.628906 22.542969 25.828125zm0 0" fill="#ee4a77"/><g fill="#eef8fd"><path d="m165.726562 168.941406c-.46875.484375-.929687.972656-1.386718 1.460938.457031-.488282.917968-.976563 1.386718-1.460938zm0 0"/><path d="m166.429688 168.21875c-.175782.179688-.347657.355469-.523438.539062.171875-.183593.347656-.359374.523438-.539062zm0 0"/><path d="m167.320312 167.320312c-.234374.230469-.464843.464844-.695312.699219.230469-.234375.460938-.46875.695312-.699219zm0 0"/><path d="m164.226562 170.523438c-.214843.230468-.429687.460937-.640624.695312.210937-.234375.425781-.464844.640624-.695312zm0 0"/><path d="m374.050781 163.535156c5.550781.753906 10.546875 3.253906 14.414063 6.929688l-118.898438 104.835937c-10.875 9.585938-27.179687 9.585938-38.050781 0l-84.777344-80.917969c4.613281-8.171874 10.210938-15.9375 16.800781-23.117187-5.113281 5.574219-9.636718 11.5-13.5625 17.691406-.136718.21875-.277343.441407-.414062.660157-3.710938 5.941406-6.878906 12.125-9.503906 18.480468-.195313.472656-.382813.945313-.574219 1.417969-.1875.472656-.375.945313-.554687 1.421875-.183594.472656-.363282.949219-.539063 1.425781-1.851563 5-3.375 10.09375-4.566406 15.25-.058594.246094-.113281.492188-.167969.738281-.167969.734376-.324219 1.472657-.476562 2.214844-.09375.453125-.1875.90625-.273438 1.359375-.152344.78125-.296875 1.5625-.433594 2.347657-.519531 2.972656-.933594 5.957031-1.238281 8.957031-.027344.273437-.054687.542969-.082031.816406-.042969.476563-.085938.953125-.125 1.429687-.042969.5-.082032 1-.117188 1.5-.054687.765626-.101562 1.527344-.144531 2.292969-.023437.488281-.046875.976563-.070313 1.464844-.019531.5-.039062 1.003906-.050781 1.503906-.015625.5-.027343 1.003907-.039062 1.503907-.015625 1.003906-.023438 2.007812-.015625 3.011718.003906.5.007812 1 .015625 1.503906.011719.5.023437 1 .039062 1.503907.011719.5.03125 1 .050781 1.503906.023438.5.046876 1 .074219 1.5.027344.503906.054688 1.003906.089844 1.503906.015625.25.035156.5.050781.75.035156.5.074219 1 .117188 1.5.042968.5.085937 1 .132812 1.5.050782.5.101563 1 .15625 1.5.078125.746094.167969 1.496094.261719 2.242188.1875 1.496093.402344 2.988281.644531 4.476562.28125 1.738281.601563 3.46875.957032 5.195313.152343.738281.3125 1.476562.476562 2.214844.113281.492187.226562.984374.34375 1.472656.347656 1.472656.726562 2.9375 1.128906 4.398437.269532.972657.550782 1.945313.84375 2.914063.21875.726562.445313 1.449218.679688 2.171875.308594.964843.632812 1.925781.96875 2.882812.164062.480469.335937.957031.511718 1.433594.171876.476563.347657.953125.527344 1.429687.269532.710938.542969 1.421876.828125 2.132813.28125.707031.570313 1.417969.867188 2.121094.195312.46875.398437.9375.601562 1.40625 1.015625 2.339843 2.105469 4.65625 3.273438 6.941406.816406 1.601563 1.667969 3.1875 2.554687 4.761719.253906.445312.511719.894531.773438 1.34375 1.167968 2.007812 2.402344 3.992187 3.691406 5.949218 4.59375 6.953126 9.949219 13.550782 16.070312 19.671876 1.382813 1.382812 2.792969 2.71875 4.21875 4.019531h198.992188c14.394531 0 26.066406-11.667969 26.066406-26.066407v-133.269531c-.003906-13.199219-9.816406-24.105469-22.546875-25.828125zm0 0"/><path d="m373.117188 163.425781c.085937.011719.175781.019531.261718.027344-.085937-.007813-.171875-.015625-.261718-.027344zm0 0"/><path d="m373.742188 163.496094c.101562.011718.203124.027344.304687.039062-.101563-.011718-.203125-.027344-.304687-.039062zm0 0"/><path d="m372.167969 163.351562c.070312.003907.140625.007813.207031.011719-.070312-.003906-.136719-.007812-.207031-.011719zm0 0"/><path d="m372.808594 163.398438c.082031.007812.164062.015624.246094.023437-.082032-.007813-.164063-.015625-.246094-.023437zm0 0"/><path d="m372.480469 163.371094c.078125.007812.152343.011718.230469.019531-.078126-.007813-.152344-.011719-.230469-.019531zm0 0"/><path d="m371.511719 163.316406c.0625.003906.125.007813.1875.007813-.0625 0-.125-.003907-.1875-.007813zm0 0"/><path d="m371.839844 163.332031c.058594.003907.117187.007813.179687.011719-.058593-.003906-.121093-.007812-.179687-.011719zm0 0"/><path d="m373.4375 163.460938c.09375.011718.1875.019531.28125.03125-.09375-.011719-.1875-.019532-.28125-.03125zm0 0"/><path d="m370.855469 163.300781c.046875 0 .09375.003907.140625.003907-.046875 0-.09375-.003907-.140625-.003907zm0 0"/><path d="m371.1875 163.308594c.054688 0 .113281.003906.167969.003906-.054688 0-.113281-.003906-.167969-.003906zm0 0"/></g><path d="m146.738281 194.382812 84.777344 80.917969c10.871094 9.585938 27.179687 9.585938 38.050781 0l118.902344-104.835937c-3.871094-3.675782-8.867188-6.175782-14.414062-6.929688-.003907 0-.003907 0-.007813 0-.101563-.011718-.199219-.027344-.304687-.039062-.007813 0-.015626-.003906-.023438-.003906-.09375-.011719-.1875-.019532-.28125-.03125-.019531-.003907-.039062-.003907-.054688-.007813-.089843-.007813-.175781-.019531-.265624-.027344-.019532 0-.042969-.003906-.0625-.003906-.082032-.007813-.164063-.015625-.246094-.023437-.035156-.003907-.066406-.003907-.097656-.007813-.078126-.003906-.152344-.011719-.230469-.019531-.035157 0-.070313-.003906-.105469-.007813-.070312-.003906-.136719-.007812-.207031-.011719-.050781-.003906-.101563-.007812-.152344-.007812-.058594-.003906-.117187-.007812-.175781-.011719-.046875-.003906-.09375-.003906-.140625-.007812-.0625 0-.125-.003907-.1875-.007813-.050781 0-.105469 0-.15625-.003906-.054688 0-.113281-.003906-.167969-.003906-.066406 0-.128906-.003906-.191406-.003906-.046875 0-.09375-.003907-.140625-.003907-.109375 0-.21875 0-.328125 0h-198.988282c-1.363281 1.242188-2.710937 2.515625-4.03125 3.832031-.0625.0625-.125.125-.1875.1875-.234374.234376-.464843.464844-.695312.699219-.066406.066407-.132812.132813-.195312.203125-.175782.175782-.351563.355469-.523438.535156-.0625.0625-.121094.125-.183594.1875-.464844.484376-.925781.96875-1.382812 1.460938-.039063.039062-.078125.078125-.113282.121094-.214843.230468-.429687.460937-.644531.691406-.015625.015625-.027343.035156-.042969.050781-6.589843 7.175781-12.1875 14.941407-16.800781 23.113281zm0 0" fill="#adcbd9"/><path d="m350.667969 280.402344c-5.523438 0-10 4.480468-10 10 0 5.523437 4.476562 10 10 10h.023437c5.523438 0 9.988282-4.476563 9.988282-10 0-5.519532-4.488282-10-10.011719-10zm0 0" fill="#231f20"/><path d="m485.523438 203.589844h-37.882813c-4.394531-16.148438-10.78125-31.582032-19.050781-46.058594l26.765625-26.769531c5-5 7.757812-11.648438 7.757812-18.722657 0-7.070312-2.753906-13.722656-7.757812-18.722656l-36.675781-36.675781c-10.320313-10.324219-27.121094-10.324219-37.445313 0l-26.765625 26.769531c-14.476562-8.269531-29.910156-14.65625-46.058594-19.050781v-37.882813c0-14.597656-11.878906-26.476562-26.476562-26.476562h-51.867188c-14.601562 0-26.476562 11.878906-26.476562 26.476562v37.882813c-16.148438 4.394531-31.582032 10.78125-46.058594 19.050781l-26.769531-26.765625c-10.324219-10.324219-27.121094-10.324219-37.445313 0l-36.671875 36.671875c-5 5.003906-7.757812 11.652344-7.757812 18.722656 0 7.074219 2.753906 13.722657 7.757812 18.722657l26.765625 26.769531c-8.269531 14.480469-14.65625 29.914062-19.050781 46.058594h-37.882813c-14.597656 0-26.476562 11.878906-26.476562 26.476562v51.867188c0 14.597656 11.878906 26.476562 26.476562 26.476562h37.882813c4.394531 16.144532 10.777344 31.582032 19.050781 46.058594l-26.765625 26.769531c-5.003906 5-7.757812 11.648438-7.757812 18.722657 0 7.070312 2.753906 13.722656 7.757812 18.722656l36.675781 36.675781c10.320313 10.320313 27.121094 10.320313 37.441407 0l26.769531-26.769531c14.476562 8.273437 29.910156 14.65625 46.058594 19.054687v37.878907c0 14.601562 11.875 26.480468 26.476562 26.480468h51.867188c14.601562 0 26.476562-11.878906 26.476562-26.480468v-37.878907c16.148438-4.398437 31.582032-10.78125 46.058594-19.054687l25.410156 25.410156c11.070313 11.070312 29.089844 11.070312 40.160156 0l33.960938-33.960938c11.070312-11.070312 11.070312-29.085937 0-40.160156l-25.410156-25.410156c8.273437-14.476562 14.65625-29.910156 19.054687-46.058594h37.878907c14.601562 0 26.480468-11.875 26.480468-26.476562v-51.867188c-.003906-14.597656-11.882812-26.476562-26.480468-26.476562zm6.476562 78.34375c0 3.570312-2.90625 6.476562-6.476562 6.476562h-45.683594c-4.660156 0-8.703125 3.222656-9.746094 7.765625-4.457031 19.40625-12.046875 37.757813-22.5625 54.542969-2.476562 3.949219-1.894531 9.085938 1.402344 12.378906l30.921875 30.925782c3.273437 3.273437 3.273437 8.601562 0 11.875l-33.957031 33.960937c-3.273438 3.273437-8.605469 3.273437-11.878907 0l-30.921875-30.925781c-3.296875-3.292969-8.433594-3.875-12.378906-1.402344-16.789062 10.515625-35.140625 18.109375-54.546875 22.566406-4.542969 1.042969-7.761719 5.085938-7.761719 9.746094v45.679688c0 3.574218-2.90625 6.480468-6.476562 6.480468h-51.871094c-3.570312 0-6.476562-2.90625-6.476562-6.480468v-45.679688c0-4.660156-3.21875-8.703125-7.761719-9.746094-19.40625-4.457031-37.757813-12.050781-54.542969-22.566406-1.636719-1.023438-3.476562-1.523438-5.304688-1.523438-2.585937 0-5.148437 1-7.078124 2.929688l-32.28125 32.28125c-2.523438 2.523438-6.632813 2.523438-9.15625 0l-36.679688-36.679688c-1.222656-1.222656-1.894531-2.847656-1.894531-4.578124 0-1.730469.671875-3.355469 1.894531-4.578126l32.285156-32.28125c3.292969-3.296874 3.875-8.433593 1.402344-12.382812-10.515625-16.789062-18.109375-35.140625-22.566406-54.542969-1.042969-4.542969-5.085938-7.761719-9.746094-7.761719h-45.679688c-3.570312 0-6.476562-2.90625-6.476562-6.480468v-51.867188c0-3.570312 2.90625-6.476562 6.476562-6.476562h45.683594c4.660156 0 8.703125-3.21875 9.746094-7.761719 4.457031-19.402344 12.046875-37.757813 22.5625-54.546875 2.476562-3.949219 1.890625-9.082031-1.402344-12.378906l-32.28125-32.28125c-1.222656-1.222656-1.898437-2.851563-1.898437-4.582032 0-1.726562.675781-3.355468 1.898437-4.578124l36.675782-36.675782c2.527343-2.523437 6.636718-2.523437 9.160156 0l32.28125 32.28125c3.296875 3.292969 8.429687 3.878906 12.378906 1.402344 16.789062-10.515625 35.140625-18.105469 54.546875-22.566406 4.542969-1.042969 7.761719-5.085938 7.761719-9.746094v-45.679688c0-3.570312 2.90625-6.476562 6.476562-6.476562h51.867188c3.570312 0 6.476562 2.90625 6.476562 6.476562v45.683594c0 4.660156 3.222656 8.703125 7.765625 9.746094 19.402344 4.457031 37.757813 12.046875 54.542969 22.5625 3.949219 2.472656 9.085938 1.894531 12.378906-1.402344l32.28125-32.28125c2.527344-2.523437 6.636719-2.523437 9.160156 0l36.675782 36.675782c1.226562 1.222656 1.898437 2.851562 1.898437 4.582031 0 1.726562-.675781 3.355469-1.898437 4.578125l-32.28125 32.28125c-3.292969 3.296875-3.875 8.429687-1.402344 12.378906 10.515625 16.789062 18.109375 35.140625 22.566406 54.546875 1.042969 4.542969 5.085938 7.761719 9.746094 7.761719h45.679688c3.574218 0 6.480468 2.90625 6.480468 6.476562v51.867188zm0 0" fill="#231f20"/><path d="m395.707031 163.566406c-.117187-.121094-.234375-.238281-.355469-.355468-5.609374-5.324219-12.667968-8.65625-20.230468-9.621094-.007813 0-.015625-.003906-.023438-.003906-.136718-.019532-.273437-.035157-.410156-.050782-.023438 0-.042969-.003906-.058594-.003906-.125-.015625-.25-.027344-.375-.042969-.035156-.003906-.066406-.007812-.101562-.007812-.109375-.011719-.21875-.023438-.328125-.03125-.046875-.003907-.09375-.007813-.136719-.011719-.097656-.011719-.199219-.019531-.296875-.027344-.054687-.003906-.109375-.007812-.164063-.011718-.089843-.007813-.179687-.011719-.273437-.019532-.058594-.003906-.117187-.007812-.175781-.011718-.089844-.003907-.179688-.007813-.265625-.015626-.0625 0-.125-.003906-.1875-.007812-.085938-.003906-.175781-.007812-.265625-.011719-.058594-.003906-.121094-.007812-.183594-.007812-.085938-.003907-.171875-.007813-.261719-.007813-.0625-.003906-.125-.003906-.191406-.007812-.089844 0-.183594-.003906-.273437-.003906-.058594 0-.117188 0-.171876-.003907-.152343 0-.300781 0-.449218 0h-26.269532c-25.339843-21.824219-57.539062-33.414062-91.1875-32.679687-34.839843.746094-67.613281 14.652344-92.363281 39.167968-.152343.152344-.304687.308594-.460937.457032-.183594.1875-.363282.371094-.546875.554687-.023438.023438-.046875.042969-.066407.066407-.023437.023437-.046874.046874-.070312.074218-.160156.160156-.316406.320313-.472656.480469-.058594.058594-.113282.113281-.167969.171875-.136719.140625-.269531.277344-.402344.417969-.070312.066406-.136719.136719-.203125.207031-.132812.140625-.269531.28125-.402344.421875-.035156.035156-.070312.070313-.101562.105469-.054688.054687-.105469.113281-.160156.167968-.097656.105469-.199219.210938-.300782.316407-.085937.09375-.175781.191406-.265624.285156-.074219.078125-.148438.15625-.21875.238281-.082032.085938-.164063.171875-.246094.261719-.101563.105469-.199219.214844-.300782.324219-.03125.035156-.0625.066406-.089843.101562-2.726563 2.96875-5.296875 6.027344-7.710938 9.171875-.015625.023438-.035156.046875-.054687.074219-.097656.125-.191406.25-.285156.375-.066407.082031-.128907.167969-.191407.25-.09375.125-.1875.25-.28125.371094-.117187.15625-.234375.308594-.347656.464844-.042969.058593-.085937.117187-.128906.171874-3.359375 4.523438-6.433594 9.246094-9.199219 14.144532-.078125.140625-.152344.28125-.226562.421875-21.203126 37.9375-22.75 83.992187-4.644532 123.113281.082032.210938.167969.414062.265625.617188 6.15625 13.101562 14.34375 25.0625 24.355469 35.605468.035156.035156.070312.070313.105469.105469.148437.160156.300781.316406.449219.472656.027343.027344.050781.054688.078124.082031.035157.035157.066407.070313.101563.105469.128906.128907.253906.261719.382813.394531.066406.070313.132812.136719.199218.207032.136719.136718.269532.273437.40625.414062.054688.054688.113282.113282.167969.167969.191406.195313.382813.386719.578125.582031.167969.167969.339844.339844.511719.507813 24.742187 24.484375 57.492187 38.371093 92.308593 39.117187.988282.023438 1.976563.03125 2.964844.03125 32.550782 0 63.628906-11.527344 88.222656-32.707031h26.269532c6.6875 0 12.953125-1.832031 18.328125-5.015625 3.097656-1.828125 5.9375-4.125 8.398437-6.835938.144532-.164062.285156-.328124.421875-.496093 5.550781-6.347657 8.917969-14.648438 8.917969-23.71875v-133.269531c0-10.101563-4.171875-19.246094-10.886719-25.800782zm-16.40625 147.023438c-3.417969-4.339844-9.703125-5.085938-14.042969-1.667969-4.339843 3.417969-5.085937 9.703125-1.667968 14.042969l11.804687 14.984375c-1.171875.371093-2.402343.613281-3.667969.707031-.082031.003906-.160156.011719-.238281.015625h-.03125c-.308593.019531-.617187.027344-.929687.027344h-195.03125c-.003906-.007813-.011719-.011719-.015625-.019531-.234375-.226563-.460938-.449219-.6875-.671876-.132813-.132812-.269531-.265624-.402344-.398437-.160156-.160156-.316406-.320313-.476563-.480469-.035156-.035156-.074218-.074218-.109374-.113281-.144532-.144531-.285157-.289063-.425782-.433594-.015625-.015625-.03125-.03125-.050781-.050781-.671875-.691406-1.339844-1.390625-1.992187-2.097656-.027344-.027344-.050782-.050782-.074219-.078125-.308594-.332031-.609375-.664063-.914063-1-.367187-.40625-.730468-.816407-1.09375-1.226563-6.007812-6.835937-11.070312-14.222656-15.1875-21.976562l38.453125-55.902344 32.378907 28.550781c.113281.097657.230468.199219.34375.296875 7.25 6.246094 16.273437 9.367188 25.296874 9.367188 6.875 0 13.75-1.8125 19.839844-5.4375 2.027344-1.207032 3.972656-2.617188 5.800782-4.230469l32.910156-29.015625 12.613281 16.011719c3.417969 4.339843 9.707031 5.085937 14.042969 1.667969 4.339844-3.417969 5.085937-9.707032 1.667968-14.046876l-13.300781-16.882812 62.082031-54.734375c.257813 1.144531.398438 2.339844.398438 3.5625v130.484375zm-229.597656-99.554688 29.140625 27.816406-33.742188 49.046876c-7.210937-25.238282-5.675781-52.472657 4.601563-76.863282zm220.429687-37.734375-66.320312 58.472657c-.007812.007812-.015625.011718-.023438.019531l-40.835937 36.007812c-6.523437 5.75-16.097656 6.199219-23.101563 1.351563 0-.003906-.003906-.003906-.007812-.003906-.054688-.039063-.109375-.078126-.164062-.117188-.003907-.003906-.007813-.007812-.015626-.011719-.046874-.035156-.097656-.070312-.144531-.105469-.011719-.007812-.023437-.015624-.035156-.023437-.050781-.035156-.097656-.074219-.148437-.109375-.007813-.007812-.015626-.011719-.023438-.015625-.046875-.035156-.09375-.070313-.136719-.105469-.015625-.011718-.027343-.019531-.039062-.03125-.039063-.03125-.082031-.0625-.121094-.089844-.019531-.015624-.039063-.03125-.058594-.046874-.03125-.023438-.0625-.050782-.09375-.074219-.027343-.023438-.054687-.042969-.082031-.066407-.023438-.019531-.050781-.039062-.074219-.0625-.03125-.023437-.066406-.050781-.097656-.078124-.023437-.019532-.046875-.039063-.070313-.058594-.03125-.027344-.066406-.054688-.097656-.082032-.019531-.015624-.039062-.03125-.058594-.050781-.039062-.03125-.078124-.0625-.113281-.097656-.003906 0-.007812-.003906-.007812-.007813l-78.789063-75.199218c2.675782-4.078125 5.636719-8.023438 8.882813-11.808594.070312-.082031.144531-.167969.214843-.25.089844-.101562.175782-.207031.265626-.308594 1.292968-1.484375 2.625-2.941406 3.992187-4.363281.152344-.160156.308594-.320313.464844-.476563.015625-.019531.035156-.039062.050781-.054687.347656-.355469.695312-.710937 1.046875-1.058594 0-.003906 0-.003906.003906-.003906.128907-.128906.261719-.261719.390625-.390625.234375-.230469.472656-.464844.714844-.699219zm-114.109374-32.800781c18.101562 0 36.222656 4.253906 52.765624 12.800781h-105.570312c16.515625-8.523437 34.652344-12.800781 52.804688-12.800781zm-52.808594 218.199219h105.574218c-33.132812 17.117187-72.589843 17.019531-105.574218 0zm0 0" fill="#231f20"/></svg>