<svg height="512pt" viewBox="0 0 512 512.00081" width="512pt" xmlns="http://www.w3.org/2000/svg"><g fill-rule="evenodd"><path d="m216.265625 341.085938c-17.671875-12.320313-33.050781-27.699219-45.375-45.371094l-35.351563 35.351562 45.371094 45.371094zm0 0" fill="#ffba4a"/><path d="m180.914062 376.4375-45.371093-45.371094-116.1875 116.1875c-12.476563 12.476563-12.472657 32.898438 0 45.371094 12.472656 12.472656 32.898437 12.472656 45.371093 0zm0 0" fill="#f7f7f7"/><path d="m410.449219 191.410156c-4.699219 4.699219-12.320313 4.699219-17.019531 0l-72.859376-72.863281c-24.820312-24.820313-24.820312-65.058594 0-89.878906 21.984376-21.984375 56.382813-24.667969 81.371094-7.148438 24.988282-17.519531 59.386719-14.832031 81.371094 7.148438 24.820312 24.820312 24.820312 65.058593 0 89.878906zm0 0" fill="#fd4848"/><path d="m290.910156 269.265625c-2.007812 2.007813-5.261718 2.007813-7.269531 0l-31.113281-31.113281c-10.597656-10.597656-10.597656-27.78125 0-38.378906 9.386718-9.386719 24.078125-10.535157 34.746094-3.054688 10.671874-7.480469 25.363281-6.332031 34.75 3.054688 10.597656 10.597656 10.597656 27.78125 0 38.378906zm0 0" fill="#fd4848"/><path d="m320.125 333.660156c78.320312 0 141.808594-63.488281 141.808594-141.808594 0-15.347656-2.492188-30.425781-7.230469-44.695312l-44.253906 44.253906c-4.699219 4.699219-12.320313 4.699219-17.019531 0l-72.859376-72.863281c-18.335937-18.335937-23.128906-45.085937-14.371093-67.820313-71.78125 6.996094-127.882813 67.507813-127.882813 141.125.003906 78.320313 63.492188 141.808594 141.808594 141.808594zm-29.214844-64.394531c-2.007812 2.007813-5.261718 2.007813-7.269531 0l-31.113281-31.113281c-10.597656-10.597656-10.597656-27.78125 0-38.378906 9.386718-9.386719 24.078125-10.535157 34.746094-3.054688 10.671874-7.480469 25.359374-6.332031 34.75 3.054688 10.597656 10.601562 10.597656 27.78125 0 38.382812zm0 0" fill="#b6e7ff"/><path d="m461.933594 191.851562c0 78.320313-63.492188 141.808594-141.808594 141.808594s-141.804688-63.488281-141.804688-141.808594c0-73.617187 56.097657-134.128906 127.878907-141.125 3.097656-8.039062 7.890625-15.574218 14.371093-22.058593 8.066407-8.0625 17.796876-13.53125 28.125-16.355469-9.402343-1.496094-18.953124-2.261719-28.570312-2.261719-100.40625 0-181.800781 81.398438-181.800781 181.800781 0 38.617188 12.039062 74.417969 32.570312 103.863282 12.320313 17.667968 27.699219 33.046875 45.371094 45.371094 29.441406 20.527343 65.246094 32.570312 103.863281 32.570312 100.40625 0 181.800782-81.398438 181.800782-181.804688 0-26.230468-5.675782-51.988281-16.453126-75.574218-.699218.773437-1.421874 1.527344-2.164062 2.273437l-28.609375 28.605469c4.738281 14.269531 7.230469 29.347656 7.230469 44.695312zm0 0" fill="#f7f7f7"/></g><path d="m497.082031 117.894531c21.753907-28.796875 19.53125-70.066406-6.699219-96.292969-23.6875-23.691406-59.90625-28.25-88.441406-11.914062-16.671875-9.546875-35.964844-11.945312-53.851562-7.574219-9.246094-1.363281-18.640625-2.0585935-27.964844-2.0585935-36.289062 0-71.625 10.1875005-102.183594 29.4648435-4.671875 2.945313-6.070312 9.117188-3.121094 13.789063 1.898438 3.015625 5.144532 4.667968 8.464844 4.667968 1.824219 0 3.667969-.5 5.324219-1.542968 25.929687-16.355469 55.703125-25.386719 86.414063-26.292969-.511719.480469-1.023438.960937-1.523438 1.460937-5.953125 5.953126-10.652344 12.691407-14.132812 19.871094-35.082032 4.804688-67.355469 21.734375-91.410157 48.09375-25.558593 28.011719-39.636719 64.339844-39.636719 102.289063 0 83.707031 68.097657 151.804687 151.804688 151.804687 27.003906 0 53.527344-7.1875 76.703125-20.785156 4.761719-2.796875 6.359375-8.921875 3.5625-13.683594-2.792969-4.761718-8.917969-6.359375-13.683594-3.566406-20.109375 11.800781-43.132812 18.039062-66.582031 18.039062-72.679688 0-131.808594-59.128906-131.808594-131.808593 0-63.257813 43.988282-116.359375 104.457032-128.972657-3.25 22.230469 3.65625 45.667969 20.726562 62.738282l72.859375 72.859375c4.296875 4.296875 9.9375 6.445312 15.578125 6.445312 5.644531 0 11.285156-2.148437 15.582031-6.441406 0 0 0 0 0-.003906l31.945313-31.941407c1.628906 8.324219 2.46875 16.789063 2.46875 25.316407 0 20.75-4.6875 40.609375-13.925782 59.023437-2.480468 4.9375-.484374 10.945313 4.449219 13.421875 1.441407.722657 2.96875 1.0625 4.476563 1.0625 3.664062 0 7.191406-2.019531 8.945312-5.515625 10.652344-21.222656 16.050782-44.097656 16.050782-67.992187 0-14.203125-1.984376-28.265625-5.894532-41.886719l15.886719-15.890625c6.640625 18.527344 10.003906 37.898437 10.003906 57.777344 0 94.734375-77.070312 171.804687-171.800781 171.804687-94.734375 0-171.804688-77.070312-171.804688-171.804687 0-32.535157 9.136719-64.203125 26.421876-91.582031 2.949218-4.667969 1.554687-10.84375-3.113282-13.792969-4.671875-2.945313-10.847656-1.550781-13.792968 3.117187-19.308594 30.578125-29.511719 65.9375-29.511719 102.257813 0 37.679687 10.925781 72.847656 29.769531 102.519531l-29.613281 29.613281c-.003907.003907-.007813.007813-.011719.011719s-.003906.007812-.007812.007812l-116.175782 116.175782c-7.921875 7.921875-12.285156 18.488281-12.285156 29.757812 0 11.265625 4.363281 21.832032 12.285156 29.753906 8.203125 8.203126 18.980469 12.304688 29.757813 12.304688 10.773437 0 21.550781-4.101562 29.753906-12.304688l116.183594-116.1875h.003906l29.621094-29.625c29.671875 18.84375 64.84375 29.769532 102.519531 29.769532 105.757812 0 191.800781-86.039063 191.800781-191.800782 0-25.597656-4.996093-50.445312-14.84375-73.957031zm-93.699219 66.445313c-.792968.792968-2.085937.792968-2.878906 0l-72.863281-72.859375c-20.878906-20.882813-20.878906-54.859375 0-75.742188 6.660156-6.65625 14.675781-11.226562 23.203125-13.664062.335938-.074219.667969-.164063.992188-.269531 4.476562-1.1875 9.082031-1.796876 13.699218-1.796876 10.664063 0 21.382813 3.1875 30.667969 9.699219 3.445313 2.414063 8.03125 2.414063 11.480469 0 21.296875-14.933593 50.128906-12.394531 68.558594 6.03125 20.226562 20.230469 20.859374 52.742188 1.902343 73.738281-.023437.023438-.042969.042969-.0625.066407-.59375.65625-1.207031 1.304687-1.84375 1.9375zm-345.726562 301.214844c-8.609375 8.609374-22.621094 8.609374-31.230469-.003907-4.144531-4.140625-6.429687-9.6875-6.429687-15.609375 0-5.925781 2.285156-11.472656 6.429687-15.617187l109.117188-109.117188 31.230469 31.230469zm123.257812-123.257813-31.234374-31.230469 20.167968-20.171875c9.183594 11.566407 19.667969 22.050781 31.234375 31.234375zm0 0"/><path d="m287.277344 185.222656c-13.90625-6.445312-30.632813-3.707031-41.816406 7.480469-14.480469 14.480469-14.480469 38.039063-.003907 52.519531l31.113281 31.113282c2.859376 2.859374 6.660157 4.433593 10.707032 4.433593 4.042968 0 7.84375-1.574219 10.703125-4.433593l31.113281-31.113282c14.480469-14.480468 14.480469-38.039062 0-52.519531-11.1875-11.1875-27.910156-13.925781-41.816406-7.480469zm27.675781 45.863282-27.675781 27.675781-27.679688-27.675781c-6.683594-6.683594-6.683594-17.558594 0-24.242188 3.328125-3.328125 7.714844-5.039062 12.132813-5.039062 3.410156 0 6.835937 1.023437 9.804687 3.101562 3.445313 2.417969 8.035156 2.417969 11.480469 0 6.8125-4.777344 16.039063-3.960938 21.9375 1.9375 6.683594 6.683594 6.683594 17.558594 0 24.242188zm0 0"/><path d="m191.570312 73.300781c2.558594 0 5.121094-.980469 7.074219-2.929687 3.902344-3.90625 3.902344-10.238282 0-14.140625-3.90625-3.90625-10.238281-3.90625-14.144531 0l-.003906.003906c-3.902344 3.90625-3.902344 10.234375.003906 14.136719 1.953125 1.953125 4.511719 2.929687 7.070312 2.929687zm0 0"/><path d="m430.558594 296.007812c3.902344-3.902343 3.902344-10.234374 0-14.140624-3.90625-3.902344-10.234375-3.902344-14.140625 0l-.003907.007812c-3.90625 3.902344-3.902343 10.230469 0 14.136719 1.953126 1.949219 4.511719 2.925781 7.070313 2.925781 2.5625 0 5.121094-.976562 7.074219-2.929688zm0 0"/></svg>