<?xml version="1.0" encoding="iso-8859-1"?>
<!-- Generator: Adobe Illustrator 19.0.0, SVG Export Plug-In . SVG Version: 6.00 Build 0)  -->
<svg version="1.1" id="Capa_1" xmlns="http://www.w3.org/2000/svg" xmlns:xlink="http://www.w3.org/1999/xlink" x="0px" y="0px"
	 viewBox="0 0 512 512" style="enable-background:new 0 0 512 512;" xml:space="preserve">
<path style="fill:#303C42;" d="M415.583,200.083C436.479,177.948,448,148.563,448,117.333C448,52.635,398.021,0,336.604,0
	C307.979,0,278.646,15.49,256,42.021C233.396,15.49,204.042,0,175.417,0C113.979,0,64,52.635,64,117.333
	c0,31.229,11.521,60.615,32.438,82.792l128.688,134.948c4.531,4.758,10.004,8.178,15.952,10.4l-26.223,43.704
	c-1.979,3.302-2.021,7.406-0.146,10.75c1.896,3.344,5.458,5.406,9.292,5.406h19.247c-1.462,3.249-3.59,6.014-6.247,9.333
	c-5.792,7.25-13,16.26-13,33.333c0,17.073,7.208,26.083,13,33.333c5.021,6.271,8.333,10.406,8.333,20
	c0,5.896,4.771,10.667,10.667,10.667c5.896,0,10.667-4.771,10.667-10.667c0-17.073-7.208-26.083-13-33.333
	c-5.021-6.271-8.333-10.406-8.333-20s3.313-13.729,8.333-20c4.436-5.553,9.638-12.216,11.861-22.667H288
	c3.833,0,7.396-2.063,9.292-5.406c1.875-3.344,1.833-7.448-0.146-10.75l-26.221-43.703c5.957-2.221,11.434-5.642,15.971-10.401
	L415.583,200.083z"/>
<g>
	<polygon style="fill:#D32F2F;" points="242.833,384 256,362.063 269.167,384 	"/>
	<path style="fill:#D32F2F;" d="M256.021,326.958H256c-5.896,0-11.375-2.344-15.438-6.615L111.917,185.438
		c-17.146-18.156-26.583-42.344-26.583-68.104c0-52.938,40.417-96,90.083-96c25.521,0,52.396,16.531,71.854,44.229
		c2,2.844,5.25,4.531,8.729,4.531c3.479,0,6.729-1.688,8.729-4.531c19.479-27.698,46.354-44.229,71.875-44.229
		c49.667,0,90.063,43.063,90.063,96c0,25.76-9.438,49.948-26.563,68.063L271.438,320.354
		C267.375,324.615,261.896,326.958,256.021,326.958z"/>
</g>
<path style="opacity:0.1;enable-background:new    ;" d="M414.56,70.156c0.749,4.975,1.44,9.98,1.44,15.177
	c0,25.76-9.438,49.948-26.563,68.063L260.771,288.354c-4.063,4.26-9.542,6.604-15.417,6.604h-0.021
	c-5.896,0-11.375-2.344-15.438-6.615L101.25,153.438c-5.897-6.245-10.516-13.396-14.518-20.885
	c2.973,19.941,11.48,38.374,25.185,52.885l128.646,134.906c4.063,4.271,9.542,6.615,15.438,6.615h0.021
	c5.875,0,11.354-2.344,15.417-6.604l128.667-134.958c17.125-18.115,26.563-42.302,26.563-68.063
	C426.667,100.104,422.046,84.15,414.56,70.156z"/>
<path style="fill:#FFFFFF;" d="M175.417,42.667c-37.917,0-68.75,33.5-68.75,74.667c0,5.896,4.771,10.667,10.667,10.667
	S128,123.229,128,117.333C128,87.927,149.271,64,175.417,64c5.896,0,10.667-4.771,10.667-10.667S181.313,42.667,175.417,42.667z"/>
<linearGradient id="SVGID_1_" gradientUnits="userSpaceOnUse" x1="-44.6482" y1="640.2343" x2="-28.8825" y2="632.8824" gradientTransform="matrix(21.3333 0 0 -21.3333 996.3334 13791.667)">
	<stop  offset="0" style="stop-color:#FFFFFF;stop-opacity:0.2"/>
	<stop  offset="1" style="stop-color:#FFFFFF;stop-opacity:0"/>
</linearGradient>
<path style="fill:url(#SVGID_1_);" d="M415.583,200.083C436.479,177.948,448,148.563,448,117.333C448,52.635,398.021,0,336.604,0
	C307.979,0,278.646,15.49,256,42.021C233.396,15.49,204.042,0,175.417,0C113.979,0,64,52.635,64,117.333
	c0,31.229,11.521,60.615,32.438,82.792l128.688,134.948c4.531,4.758,10.004,8.178,15.952,10.4l-26.223,43.704
	c-1.979,3.302-2.021,7.406-0.146,10.75c1.896,3.344,5.458,5.406,9.292,5.406h19.247c-1.462,3.249-3.59,6.014-6.247,9.333
	c-5.792,7.25-13,16.26-13,33.333c0,17.073,7.208,26.083,13,33.333c5.021,6.271,8.333,10.406,8.333,20
	c0,5.896,4.771,10.667,10.667,10.667c5.896,0,10.667-4.771,10.667-10.667c0-17.073-7.208-26.083-13-33.333
	c-5.021-6.271-8.333-10.406-8.333-20s3.313-13.729,8.333-20c4.436-5.553,9.638-12.216,11.861-22.667H288
	c3.833,0,7.396-2.063,9.292-5.406c1.875-3.344,1.833-7.448-0.146-10.75l-26.221-43.703c5.957-2.221,11.434-5.642,15.971-10.401
	L415.583,200.083z"/>
<g>
</g>
<g>
</g>
<g>
</g>
<g>
</g>
<g>
</g>
<g>
</g>
<g>
</g>
<g>
</g>
<g>
</g>
<g>
</g>
<g>
</g>
<g>
</g>
<g>
</g>
<g>
</g>
<g>
</g>
</svg>
